{"title":"Van Helsing (2004) 1080p BDRip [Dual Audio] [ORG 2.0 Hindi-5.1 E","uid":9859828,"size":4119676027,"categoryP":"video","categoryS":"hd___movies","magnet":"?xt=urn:btih:447020338dda16980fb6df75e355e603089dbe69&amp;dn=Van+Helsing+%282004%29+1080p+BDRip+%5BDual+Audio%5D+%5BORG+2.0+Hindi-5.1+E&amp;tr=udp%3A%2F%2Ftracker.openbittorrent.com%3A80&amp;tr=udp%3A%2F%2Fopen.demonii.com%3A1337&amp;tr=udp%3A%2F%2Ftracker.coppersurfer.tk%3A6969&amp;tr=udp%3A%2F%2Fexodus.desync.com%3A6969","seeders":2,"leechers":2,"uploader":"boniin","files":-1,"time":1396276745,"description":"General\nUnique ID                                : 229856806666885159819880681257515315644 (0xACECCF894154EC06BE0F0FCC79D771BC)\nFormat                                   : Matroska\nFormat version                           : Version 4 / Version 2\nFile size                                : 3.80 GiB\nDuration                                 : 2h 11mn\nOverall bit rate                         : 4 134 Kbps\nMovie name                               : Invincible\nEncoded date                             : UTC 2014-03-31 01:49:13\nWriting application                      : mkvmerge v6.8.0 ('Theme for Great Cities') 32bit built on Mar  2 2014 21:27:07\nWriting library                          : libebml v1.3.0 + libmatroska v1.4.1\n\nVideo\nID                                       : 1\nFormat                                   : AVC\nFormat/Info                              : Advanced Video Codec\nFormat profile                           : &lt;a class=&quot;__cf_email__&quot; href=&quot;/cdn-cgi/l/email-protection&quot; data-cfemail=&quot;b8f0d1dfd0f8f48c9689&quot;&gt;[email&amp;#160;protected]&lt;/a&gt;&lt;script cf-hash='f9e31' type=&quot;text/javascript&quot;&gt;\n/* &lt;![CDATA[ */!function(){try{var t=&quot;currentScript&quot;in document?document.currentScript:function(){for(var t=document.getElementsByTagName(&quot;script&quot;),e=t.length;e--;)if(t[e].getAttribute(&quot;cf-hash&quot;))return t[e]}();if(t&amp;&amp;t.previousSibling){var e,r,n,i,c=t.previousSibling,a=c.getAttribute(&quot;data-cfemail&quot;);if(a){for(e=&quot;&quot;,r=parseInt(a.substr(0,2),16),n=2;a.length-n;n+=2)i=parseInt(a.substr(n,2),16)^r,e+=String.fromCharCode(i);e=document.createTextNode(e),c.parentNode.replaceChild(e,c)}}}catch(u){}}();/* ]]&gt; */&lt;/script&gt;\nFormat settings, CABAC                   : Yes\nFormat settings, ReFrames                : 4 frames\nCodec ID                                 : V_MPEG4/ISO/AVC\nDuration                                 : 2h 11mn\nBit rate                                 : 3 500 Kbps\nWidth                                    : 1 920 pixels\nHeight                                   : 1 040 pixels\nDisplay aspect ratio                     : 1.85:1\nFrame rate mode                          : Constant\nFrame rate                               : 23.976 fps\nColor space                              : YUV\nChroma subsampling                       : 4:2:0\nBit depth                                : 8 bits\nScan type                                : Progressive\nBits/(Pixel*Frame)                       : 0.073\nStream size                              : 3.13 GiB (83%)\nWriting library                          : x264 core 138 r2358 9e941d1\nEncoding settings                        : cabac=1 / ref=4 / deblock=1:1:1 / analyse=0x3:0x133 / me=umh / subme=10 / psy=1 / psy_rd=0.40:0.00 / mixed_ref=1 / me_range=24 / chroma_me=1 / trellis=2 / 8x8dct=1 / cqm=0 / deadzone=21,11 / fast_pskip=1 / chroma_qp_offset=-2 / threads=18 / lookahead_threads=4 / sliced_threads=0 / nr=0 / decimate=1 / interlaced=0 / bluray_compat=0 / constrained_intra=0 / bframes=10 / b_pyramid=2 / b_adapt=2 / b_bias=0 / direct=3 / weightb=1 / open_gop=0 / weightp=2 / keyint=240 / keyint_min=23 / scenecut=40 / intra_refresh=0 / rc_lookahead=60 / rc=2pass / mbtree=1 / bitrate=3500 / ratetol=1.0 / qcomp=0.60 / qpmin=0 / qpmax=69 / qpstep=4 / cplxblur=20.0 / qblur=0.5 / vbv_maxrate=62500 / vbv_bufsize=78125 / nal_hrd=none / ip_ratio=1.40 / aq=1:0.60\nLanguage                                 : English\nDefault                                  : Yes\nForced                                   : No\n\nAudio #1\nID                                       : 2\nFormat                                   : AC-3\nFormat/Info                              : Audio Coding 3\nMode extension                           : CM (complete main)\nFormat settings, Endianness              : Big\nCodec ID                                 : A_AC3\nDuration                                 : 2h 11mn\nBit rate mode                            : Constant\nBit rate                                 : 192 Kbps\nChannel(s)                               : 2 channels\nChannel positions                        : Front: L R\nSampling rate                            : 48.0 KHz\nBit depth                                : 16 bits\nCompression mode                         : Lossy\nStream size                              : 181 MiB (5%)\nTitle                                    : Invincible\nLanguage                                 : Hindi\nDefault                                  : Yes\nForced                                   : No\n\nAudio #2\nID                                       : 3\nFormat                                   : AC-3\nFormat/Info                              : Audio Coding 3\nMode extension                           : CM (complete main)\nFormat settings, Endianness              : Big\nCodec ID                                 : A_AC3\nDuration                                 : 2h 11mn\nBit rate mode                            : Constant\nBit rate                                 : 448 Kbps\nChannel(s)                               : 6 channels\nChannel positions                        : Front: L C R, Side: L R, LFE\nSampling rate                            : 48.0 KHz\nBit depth                                : 16 bits\nCompression mode                         : Lossy\nStream size                              : 421 MiB (11%)\nTitle                                    : Invincible\nLanguage                                 : English\nDefault                                  : No\nForced                                   : No\n\nText\nID                                       : 4\nFormat                                   : UTF-8\nCodec ID                                 : S_TEXT/UTF8\nCodec ID/Info                            : UTF-8 Plain Text\nTitle                                    : Eng\nLanguage                                 : English\nDefault                                  : No\nForced                                   : No\n\nMenu\n00:00:00.000                             : :Chapter 01\n00:07:49.218                             : :Chapter 02\n00:13:42.613                             : :Chapter 03\n00:20:14.503                             : :Chapter 04\n00:23:12.724                             : :Chapter 05\n00:33:58.036                             : :Chapter 06\n00:38:22.257                             : :Chapter 07\n00:40:34.265                             : :Chapter 08\n00:48:41.793                             : :Chapter 09\n00:53:18.862                             : :Chapter 10\n01:02:07.055                             : :Chapter 11\n01:04:31.784                             : :Chapter 12\n01:08:42.952                             : :Chapter 13\n01:09:54.982                             : :Chapter 14\n01:14:17.703                             : :Chapter 15\n01:18:55.313                             : :Chapter 16\n01:23:57.866                             : :Chapter 17\n01:29:19.103                             : :Chapter 18\n01:31:11.340                             : :Chapter 19\n01:37:30.970                             : :Chapter 20\n01:40:34.528                             : :Chapter 21\n01:43:46.345                             : :Chapter 22\n01:45:56.808                             : :Chapter 23\n01:50:21.197                             : :Chapter 24\n01:55:16.075                             : :Chapter 25\n01:57:08.396                             : :Chapter 26\n01:58:42.240                             : :Chapter 27\n02:02:01.188                             : :Chapter 28\n02:11:30.340                             : :Chapter 29\n\nscreen shots:\n &lt;a href=&quot;\nhttp://someimage.com/9EpTGPu&quot; rel=&quot;nofollow&quot; target=&quot;_NEW&quot;&gt;\nhttp://someimage.com/9EpTGPu&lt;/a&gt; &lt;a href=&quot;\nhttp://someimage.com/syowdo4&quot; rel=&quot;nofollow&quot; target=&quot;_NEW&quot;&gt;\nhttp://someimage.com/syowdo4&lt;/a&gt; &lt;a href=&quot;\nhttp://someimage.com/SWakezQ&quot; rel=&quot;nofollow&quot; target=&quot;_NEW&quot;&gt;\nhttp://someimage.com/SWakezQ&lt;/a&gt; &lt;a href=&quot;\nhttp://someimage.com/NtPP3nW&quot; rel=&quot;nofollow&quot; target=&quot;_NEW&quot;&gt;\nhttp://someimage.com/NtPP3nW&lt;/a&gt; &lt;a href=&quot;\nhttp://someimage.com/iajk5XM&quot; rel=&quot;nofollow&quot; target=&quot;_NEW&quot;&gt;\nhttp://someimage.com/iajk5XM&lt;/a&gt;\n\n","torrent":{"xt":"urn:btih:447020338dda16980fb6df75e355e603089dbe69","amp;dn":"Van+Helsing+%282004%29+1080p+BDRip+%5BDual+Audio%5D+%5BORG+2.0+Hindi-5.1+E","amp;tr":["udp%3A%2F%2Ftracker.openbittorrent.com%3A80","udp%3A%2F%2Fopen.demonii.com%3A1337","udp%3A%2F%2Ftracker.coppersurfer.tk%3A6969","udp%3A%2F%2Fexodus.desync.com%3A6969"],"infoHash":"447020338dda16980fb6df75e355e603089dbe69","infoHashBuffer":{"type":"Buffer","data":[68,112,32,51,141,218,22,152,15,182,223,117,227,85,230,3,8,157,190,105]},"announce":[],"urlList":[]}}